<?xml version="1.0" encoding="UTF-8"?>
<svg version="1.1" xmlns="http://www.w3.org/2000/svg" width="500" height="500">
<path d="M0 0 C2.46370039 -0.00271398 4.92739997 -0.00627718 7.39109802 -0.01062012 C13.35863205 -0.0187575 19.32609612 -0.01761584 25.29362733 -0.01179484 C30.14778147 -0.00725791 35.00192153 -0.00667417 39.85607719 -0.00884247 C40.54981797 -0.00914893 41.24355875 -0.0094554 41.95832197 -0.00977115 C43.36810999 -0.01041067 44.77789801 -0.0110591 46.18768602 -0.01171634 C59.3723366 -0.01740411 72.55695927 -0.01088598 85.74160527 -0.0001156 C97.02989925 0.00882048 108.31815208 0.00726438 119.60644531 -0.00195312 C132.74899056 -0.01267986 145.89151141 -0.01685701 159.03406042 -0.0107286 C160.43804037 -0.01009157 161.84202033 -0.00946283 163.24600029 -0.00884247 C164.28189534 -0.00837964 164.28189534 -0.00837964 165.33871757 -0.00790747 C170.18187813 -0.00618787 175.02502309 -0.00907963 179.86818123 -0.01380157 C186.39770186 -0.02002841 192.92715724 -0.01553325 199.45667458 -0.00401306 C201.84587221 -0.00137971 204.23507641 -0.00210879 206.62427139 -0.00653839 C229.6849649 -0.04533558 229.6849649 -0.04533558 240.48413086 2.25878906 C241.77706055 2.51917969 243.06999023 2.77957031 244.40209961 3.04785156 C267.02309189 8.83147444 286.4583718 20.27000287 302.48413086 37.25878906 C302.48413086 37.91878906 302.48413086 38.57878906 302.48413086 39.25878906 C303.14413086 39.25878906 303.80413086 39.25878906 304.48413086 39.25878906 C324.10103522 62.24425276 332.6695016 90.70006386 332.61784363 120.65444946 C332.62010918 121.64007319 332.62237474 122.62569691 332.62470895 123.64118803 C332.63098959 126.91168317 332.63022343 130.18213625 332.62939453 133.45263672 C332.63238976 135.81088311 332.63579313 138.16912901 332.63957214 140.52737427 C332.64838001 146.91196086 332.65074892 153.29653404 332.65138793 159.68112612 C332.65210034 163.67692833 332.65417486 167.67272828 332.65688515 171.66852951 C332.66568162 184.90910719 332.67030618 198.14967681 332.66955467 211.39025743 C332.66949474 212.45850823 332.66949474 212.45850823 332.66943359 213.54833984 C332.66939271 214.26138882 332.66935183 214.97443781 332.66930971 215.70909433 C332.66890367 227.25260722 332.67846525 238.79608742 332.69257196 250.33959086 C332.70698243 262.22662395 332.71383956 274.11364115 332.71297818 286.00068319 C332.71264779 292.66052805 332.71552336 299.32034343 332.72615623 305.98018265 C332.73589289 312.24949032 332.73587847 318.51872602 332.7286396 324.78803635 C332.7276006 327.07718766 332.7299155 329.36634359 332.73600006 331.65548706 C332.83251625 370.51168185 324.51397254 402.68211296 296.85913086 431.13378906 C287.50477718 440.25878906 287.50477718 440.25878906 283.48413086 440.25878906 C283.48413086 440.91878906 283.48413086 441.57878906 283.48413086 442.25878906 C261.93026502 455.00417622 241.06835249 462.43414376 215.84686279 462.39250183 C214.82322482 462.39476739 213.79958685 462.39703294 212.74492955 462.39936715 C209.33995109 462.40566021 205.93501291 462.40488082 202.5300293 462.40405273 C200.07839405 462.40704715 197.62675928 462.41045033 195.17512512 462.41423035 C189.221433 462.42213128 183.26775651 462.42528374 177.3140606 462.42584272 C172.47031032 462.42631938 167.62656328 462.42838156 162.78281403 462.43154335 C149.02309351 462.44034113 135.26338077 462.44496408 121.50365743 462.44421288 C120.39305184 462.44415294 120.39305184 462.44415294 119.26000977 462.4440918 C118.51869282 462.44405092 117.77737587 462.44401004 117.01359478 462.44396792 C105.00563553 462.44356166 92.99770768 462.45312844 80.98975751 462.46723016 C68.6338155 462.48162505 56.27788878 462.48849864 43.92193818 462.48763639 C36.99557051 462.4873055 30.06923575 462.49000492 23.14287567 462.50081444 C16.62572369 462.51092089 10.10862309 462.51055241 3.5914669 462.50329781 C1.20752803 462.502256 -1.17641523 462.50459071 -3.5603466 462.51065826 C-35.14129952 462.58579488 -62.20929237 456.94168211 -87.51586914 437.25878906 C-88.46977539 436.54207031 -89.42368164 435.82535156 -90.40649414 435.08691406 C-91.45063477 434.18199219 -91.45063477 434.18199219 -92.51586914 433.25878906 C-92.51586914 432.59878906 -92.51586914 431.93878906 -92.51586914 431.25878906 C-93.11399414 430.99066406 -93.71211914 430.72253906 -94.32836914 430.44628906 C-96.51434768 429.259615 -97.92919508 428.16279794 -99.51586914 426.25878906 C-99.51586914 425.59878906 -99.51586914 424.93878906 -99.51586914 424.25878906 C-100.17586914 424.25878906 -100.83586914 424.25878906 -101.51586914 424.25878906 C-119.44599597 405.09338546 -129.86597787 377.14216457 -129.78329468 351.11058044 C-129.78782579 350.04399124 -129.7923569 348.97740203 -129.79702532 347.87849194 C-129.80960202 344.33390722 -129.8080533 340.78947749 -129.80639648 337.24487305 C-129.81238601 334.6912059 -129.81919253 332.13754055 -129.82675171 329.58387756 C-129.84254952 323.38365791 -129.84885833 317.18349422 -129.84997647 310.98325633 C-129.85093022 305.93694776 -129.8550568 300.89065163 -129.86137772 295.844347 C-129.8789739 281.50207981 -129.88821936 267.15984242 -129.88671677 252.81756436 C-129.88663686 252.04591998 -129.88655694 251.27427559 -129.88647461 250.47924805 C-129.88639285 249.70664908 -129.88631109 248.93405012 -129.88622685 248.13803906 C-129.88541484 235.63165148 -129.90453513 223.1253846 -129.93275134 210.6190319 C-129.96156919 197.74322689 -129.9752867 184.86748057 -129.97356379 171.99164253 C-129.97290286 164.77672444 -129.97826367 157.56193282 -129.99991989 150.34704399 C-130.02017843 143.55482855 -130.01936767 136.76292273 -130.00488663 129.97067833 C-130.00280801 127.49004983 -130.00744226 125.00940432 -130.01960754 122.52880478 C-130.16196577 91.46732202 -122.77650568 65.97202943 -103.51586914 41.25878906 C-102.85586914 40.26878906 -102.19586914 39.27878906 -101.51586914 38.25878906 C-100.85586914 38.25878906 -100.19586914 38.25878906 -99.51586914 38.25878906 C-99.11368164 37.36160156 -99.11368164 37.36160156 -98.70336914 36.44628906 C-97.51669508 34.26031053 -96.41987801 32.84546312 -94.51586914 31.25878906 C-93.85586914 31.25878906 -93.19586914 31.25878906 -92.51586914 31.25878906 C-92.51586914 30.59878906 -92.51586914 29.93878906 -92.51586914 29.25878906 C-79.49851174 17.95362462 -64.2487353 9.31225678 -47.70336914 4.57128906 C-47.0051001 4.36866455 -46.30683105 4.16604004 -45.58740234 3.95727539 C-30.50578502 -0.1409716 -15.49991049 -0.0287637 0 0 Z M-10.51586914 122.25878906 C-10.51586914 134.79878906 -10.51586914 147.33878906 -10.51586914 160.25878906 C63.07413086 160.25878906 136.66413086 160.25878906 212.48413086 160.25878906 C212.48413086 147.71878906 212.48413086 135.17878906 212.48413086 122.25878906 C138.89413086 122.25878906 65.30413086 122.25878906 -10.51586914 122.25878906 Z M-10.51586914 212.25878906 C-10.51586914 224.79878906 -10.51586914 237.33878906 -10.51586914 250.25878906 C30.07413086 250.25878906 70.66413086 250.25878906 112.48413086 250.25878906 C112.48413086 237.71878906 112.48413086 225.17878906 112.48413086 212.25878906 C71.89413086 212.25878906 31.30413086 212.25878906 -10.51586914 212.25878906 Z M-10.51586914 302.25878906 C-10.51586914 315.12878906 -10.51586914 327.99878906 -10.51586914 341.25878906 C17.96910048 341.28191866 46.45406784 341.29977376 74.93904495 341.31060123 C88.16452605 341.3157618 101.39000122 341.32279997 114.61547852 341.33422852 C126.14017228 341.34418263 137.66486175 341.35064423 149.1895597 341.35287756 C155.29414638 341.35418342 161.39872077 341.35726148 167.50330353 341.36451912 C173.24546828 341.37129077 178.98761564 341.37340367 184.72978401 341.37189674 C186.84055488 341.37217255 188.95132631 341.37417089 191.06209373 341.37799454 C193.93775937 341.38294962 196.8133588 341.38178057 199.68902588 341.37904358 C200.52949219 341.38195642 201.3699585 341.38486926 202.23589349 341.38787037 C205.88996256 341.37843191 208.91417006 341.15127926 212.48413086 340.25878906 C212.48413086 327.71878906 212.48413086 315.17878906 212.48413086 302.25878906 C138.89413086 302.25878906 65.30413086 302.25878906 -10.51586914 302.25878906 Z " fill="#030303" transform="translate(149.515869140625,18.7412109375)"/>
<path d="M0 0 C0.66 0.33 1.32 0.66 2 1 C0.875 2.9375 0.875 2.9375 -1 5 C-4.1875 5.75 -4.1875 5.75 -7 6 C-4.74259377 3.66475218 -2.7194239 1.81294927 0 0 Z " fill="#888888" transform="translate(78,33)"/>
</svg>
